<?xml version="1.0" encoding="utf-8"?>
<!DOCTYPE svg PUBLIC "-//W3C//DTD SVG 1.1//EN" "http://www.w3.org/Graphics/SVG/1.1/DTD/svg11.dtd">
<!-- exported from Silhouette Studio® Business Edition V4.5.770ssbe -->
<svg version="1.1" xmlns="http://www.w3.org/2000/svg" xmlns:xlink="http://www.w3.org/1999/xlink" width="304.8mm" height="304.8mm" viewBox="0 0 304.8 304.8">
<defs>
<path id="path_88e3b9e93b19afeb67503afde9cd535e" d="M 177.2386 263.3099 C 176.833 263.1235 176.5039 262.7496 176.3826 262.3372 C 176.3274 262.1496 176.1251 261.0508 175.9332 259.8955 C 175.4384 256.9173 175.2388 255.7599 174.9931 254.4441 C 174.9469 254.1966 174.6804 252.6662 174.4008 251.0432 C 173.9328 248.3263 173.7971 247.5559 173.3346 244.9917 C 172.7876 241.9592 172.0503 237.4965 172.0082 236.9631 C 171.9653 236.4205 171.9906 236.2894 172.1957 235.9883 C 172.6456 235.3279 172.5467 235.3392 177.8545 235.3396 C 183.3071 235.3401 183.0672 235.3041 183.4948 236.1866 C 183.7005 236.611 183.7108 236.7047 183.6087 237.2216 C 183.4121 238.2174 183.1989 239.4153 182.6794 242.4411 C 182.4008 244.064 182.1352 245.5944 182.0892 245.8419 C 182.0431 246.0895 181.7335 247.89 181.401 249.843 C 181.0686 251.796 180.6142 254.4066 180.3912 255.6445 C 180.0403 257.593 179.5968 260.123 179.2907 261.922 C 179.1827 262.5567 178.9563 262.9644 178.5926 263.1791 C 178.1965 263.4128 177.5902 263.4714 177.2386 263.3099 Z" fill-rule="evenodd" fill="#FFD2A9" fill-opacity="1" stroke="none" stroke-opacity="1" stroke-width="0.1" stroke-linecap="round" stroke-linejoin="round"/>
<path id="path_be7ea2451355adea76b69d97655e80ce" d="M 140.4988 248.0334 C 140.0725 247.6594 139.8908 247.0983 140.0312 246.59 C 140.1146 246.2885 141.3598 244.4081 142.5468 242.7912 C 142.7487 242.5161 143.1325 241.976 143.3996 241.5909 C 144.4631 240.0576 145.5168 238.5456 146.1182 237.6899 C 146.4661 237.1947 147.0355 236.3846 147.3834 235.8894 C 148.033 234.9649 149.9639 232.225 151.1545 230.5381 C 151.5234 230.0155 152.2683 228.9577 152.8099 228.1875 C 155.3357 224.5951 155.2253 224.7264 155.8325 224.5932 C 156.5851 224.428 156.7004 224.5191 160.3112 228.1291 L 163.7085 231.5258 L 163.7459 232.1072 C 163.8069 233.0551 163.9483 232.9198 160.0177 235.674 C 159.467 236.0598 158.5884 236.6748 158.0653 237.0407 C 157.5421 237.4065 156.1906 238.3572 155.0617 239.1532 C 153.9328 239.9492 152.3108 241.0902 151.4573 241.6887 C 150.6038 242.2871 149.6125 242.987 149.2546 243.244 C 148.8967 243.501 148.3171 243.9094 147.9666 244.1515 C 147.6162 244.3936 146.912 244.8842 146.4017 245.2418 C 145.8914 245.5994 145.1418 246.1222 144.7361 246.4035 C 144.3303 246.6849 143.5497 247.2363 143.0015 247.6288 C 142.042 248.316 141.9833 248.3426 141.4281 248.3426 C 140.9263 248.3426 140.8056 248.3024 140.4988 248.0334 Z" fill-rule="evenodd" fill="#FFD2A9" fill-opacity="1" stroke="none" stroke-opacity="1" stroke-width="0.1" stroke-linecap="round" stroke-linejoin="round"/>
<path id="path_f0b5826a08dec42a059aca97dd7a585a" d="M 213.1008 247.9675 C 212.5588 247.6069 211.2549 246.6909 206.8246 243.5583 C 204.0517 241.5975 201.9484 240.1201 199.9042 238.6972 C 199.2775 238.261 198.3143 237.5821 197.7636 237.1886 C 197.2129 236.7951 196.1316 236.0289 195.3606 235.4859 C 192.4928 233.4663 192.1528 233.2114 191.9822 232.953 C 191.7919 232.6648 191.7513 231.9959 191.9004 231.6042 C 191.9522 231.4682 193.4988 229.8488 195.3375 228.0055 C 198.5667 224.768 198.6961 224.6516 199.1406 224.585 C 199.6858 224.5034 200.2053 224.6501 200.4843 224.9646 C 200.6866 225.1925 200.9674 225.5829 202.1192 227.2372 C 202.4831 227.7598 203.2267 228.8176 203.7717 229.5878 C 204.3167 230.358 205.2184 231.6409 205.7756 232.4386 C 206.3328 233.2363 207.6159 235.0592 208.627 236.4896 C 211.3727 240.374 211.6795 240.8107 212.3507 241.7909 C 212.6897 242.2861 213.0875 242.8487 213.2347 243.0412 C 213.382 243.2338 213.9661 244.0589 214.5328 244.8747 C 215.5123 246.2849 215.5635 246.3841 215.5708 246.8849 C 215.5835 247.7675 215.0139 248.3415 214.1243 248.3422 C 213.7598 248.3425 213.548 248.265 213.1008 247.9675 Z" fill-rule="evenodd" fill="#FFD2A9" fill-opacity="1" stroke="none" stroke-opacity="1" stroke-width="0.1" stroke-linecap="round" stroke-linejoin="round"/>
<path id="path_521d9f31c5e329edcff778218095c8ab" d="M 176.5377 233.3803 C 174.3806 233.2564 172.6383 232.9201 170.5304 232.2207 C 165.092 230.4165 160.5034 226.5748 157.6956 221.475 C 157.0221 220.2516 156.468 218.9395 155.9772 217.4057 C 155.2343 215.084 154.9615 213.2241 154.9615 210.4803 C 154.9615 207.6869 155.25 205.8547 156.0777 203.3925 C 157.194 200.0716 158.8265 197.3535 161.1939 194.8737 C 162.5354 193.4687 163.7443 192.4429 165.1739 191.4966 C 166.2834 190.7623 168.9506 189.3988 169.8796 189.0912 C 171.9348 188.4106 173.7193 187.9994 175.4326 187.8117 C 177.2264 187.6152 180.8205 187.8011 182.3448 188.1694 C 182.4549 188.196 182.8604 188.2918 183.2459 188.3823 C 185.6632 188.9498 188.6728 190.2963 190.6989 191.7171 C 196.0138 195.4441 199.375 200.8101 200.3862 207.1821 C 200.6293 208.714 200.627 212.6573 200.3823 214.0838 C 199.9058 216.8606 198.8425 219.8181 197.4873 222.1359 C 196.286 224.1904 194.7411 226.0512 192.8787 227.6868 C 189.4934 230.6599 185.3626 232.5835 181.0779 233.1821 C 179.9734 233.3364 177.5867 233.4406 176.5377 233.3803 Z" fill-rule="evenodd" fill="#FFD2A9" fill-opacity="1" stroke="none" stroke-opacity="1" stroke-width="0.1" stroke-linecap="round" stroke-linejoin="round"/>
<path id="path_b59fb3099d8dc5af8b7cb3d82be1b0dc" d="M 150.7064 216.3331 C 150.141 216.2077 149.6535 216.1216 145.6502 215.4392 C 143.6954 215.106 141.6228 214.7474 141.0446 214.6424 C 140.4665 214.5375 139.0472 214.2878 137.8908 214.0877 C 134.8676 213.5645 132.7629 213.1915 131.9336 213.0318 C 131.3566 212.9207 129.5179 212.6092 127.4791 212.2771 C 126.5985 212.1336 125.758 211.9454 125.6112 211.8588 C 124.9664 211.4783 124.734 210.449 125.1516 209.8226 C 125.4312 209.4034 125.8804 209.1771 126.7272 209.029 C 127.0852 208.9665 127.5808 208.8772 127.8286 208.8307 C 128.0764 208.7841 129.3604 208.5627 130.682 208.3386 C 132.0036 208.1145 134.2113 207.7291 135.588 207.4821 C 136.9647 207.2351 139.0372 206.8777 140.1936 206.688 C 141.35 206.4982 142.9044 206.2294 143.6478 206.0905 C 144.9792 205.8419 147.8503 205.3429 150.4129 204.9147 L 151.7214 204.6962 L 152.1841 204.9199 C 152.5311 205.0878 152.6983 205.2501 152.853 205.5694 C 153.0519 205.9799 153.0592 206.1551 153.0587 210.4896 C 153.0584 213.1306 153.0175 215.1304 152.9596 215.3387 C 152.9053 215.5337 152.7043 215.8449 152.5128 216.0304 C 152.2193 216.3146 152.0815 216.3718 151.6357 216.3947 C 151.3449 216.4096 150.9267 216.3819 150.7064 216.3331 Z" fill-rule="evenodd" fill="#FFD2A9" fill-opacity="1" stroke="none" stroke-opacity="1" stroke-width="0.1" stroke-linecap="round" stroke-linejoin="round"/>
<path id="path_ffa0270c238323987c101ab435b34433" d="M 203.5706 216.3242 C 203.1518 216.1955 202.8413 215.9104 202.6675 215.4948 C 202.544 215.1994 202.5194 214.3717 202.5195 210.5112 C 202.5197 206.3034 202.5356 205.8501 202.6947 205.5337 C 202.9208 205.0842 203.4522 204.7315 203.9034 204.7315 C 204.2966 204.7315 208.621 205.4339 211.9308 206.0353 C 213.1148 206.2505 215.1648 206.6082 216.4864 206.8303 C 217.808 207.0524 219.3624 207.323 219.9406 207.4316 C 221.6793 207.7583 223.0935 208.0056 225.0968 208.3333 C 229.5679 209.0647 230.1833 209.2307 230.43 209.7714 C 230.794 210.5696 230.6264 211.2745 229.9468 211.8044 C 229.7995 211.9193 228.7205 212.1441 227.3996 212.3353 C 226.7371 212.4312 224.4181 212.8383 221.4925 213.3723 C 220.4462 213.5632 218.9819 213.8177 218.2385 213.9377 C 217.4951 214.0577 215.6704 214.3731 214.1836 214.6384 C 212.6967 214.9038 210.7594 215.2403 209.8783 215.3862 C 208.9972 215.5322 207.309 215.8278 206.1266 216.0431 C 204.9442 216.2583 203.9531 216.4304 203.924 216.4255 C 203.8948 216.4205 203.7359 216.3749 203.5706 216.3242 Z" fill-rule="evenodd" fill="#FFD2A9" fill-opacity="1" stroke="none" stroke-opacity="1" stroke-width="0.1" stroke-linecap="round" stroke-linejoin="round"/>
<path id="path_b03feb13c4d43be4e3ffd772bc2ef52f" d="M 155.356 196.3821 C 155.1304 196.2596 154.0041 194.7436 151.8578 191.674 C 150.973 190.4086 149.8991 188.8797 149.0506 187.6772 C 148.6623 187.1271 148.0354 186.2269 147.6574 185.6767 C 147.2793 185.1266 146.5266 184.0577 145.9847 183.3014 C 145.4428 182.545 144.0983 180.6415 142.997 179.0712 C 141.8957 177.501 140.7751 175.9036 140.5068 175.5214 C 139.9122 174.6742 139.8144 174.1683 140.1267 173.5566 C 140.3556 173.1083 140.641 172.884 141.1146 172.7801 C 141.5998 172.6736 142.0332 172.8424 142.9263 173.4855 C 143.7611 174.0867 144.3766 174.5205 146.7516 176.1813 C 147.495 176.7011 148.3736 177.3201 148.7039 177.5568 C 149.0343 177.7934 150.9943 179.1728 153.0593 180.6221 C 157.5464 183.7713 158.2909 184.2955 160.1178 185.5916 C 160.8887 186.1386 161.9495 186.8848 162.4751 187.2498 C 163.6364 188.0564 163.8576 188.4132 163.7195 189.2569 C 163.6558 189.646 163.404 189.9254 160.3823 192.9612 C 158.5848 194.7672 156.9924 196.3088 156.8438 196.3871 C 156.5018 196.5671 155.6914 196.5644 155.356 196.3821 Z" fill-rule="evenodd" fill="#FFD2A9" fill-opacity="1" stroke="none" stroke-opacity="1" stroke-width="0.1" stroke-linecap="round" stroke-linejoin="round"/>
<path id="path_2ee3641e90137db1bbbe81b85ed1b3d2" d="M 198.7648 196.4147 C 198.6547 196.355 197.0656 194.8147 195.2335 192.9919 C 191.6898 189.4662 191.622 189.3802 191.7946 188.6252 C 191.9292 188.0366 192.0584 187.8885 193.0267 187.2133 C 193.5395 186.8557 194.9051 185.8946 196.0615 185.0774 C 198.7516 183.1765 202.2927 180.683 203.5457 179.8073 C 204.0826 179.4321 204.9837 178.8016 205.5481 178.4063 C 206.1125 178.011 206.9347 177.4362 207.3753 177.1288 C 208.2903 176.4904 208.5731 176.291 210.7211 174.7684 C 213.5372 172.7724 213.617 172.7235 214.0549 172.7235 C 214.9391 172.7235 215.5352 173.3156 215.5352 174.1938 C 215.5352 174.6322 215.4746 174.7885 215.091 175.3379 C 214.8467 175.6879 214.3506 176.4019 213.9887 176.9245 C 213.6268 177.4472 213.0269 178.3046 212.6558 178.8299 C 210.7907 181.4695 206.9978 186.8533 206.4242 187.6752 C 206.0662 188.188 205.4778 189.0285 205.1167 189.5428 C 204.7555 190.0571 203.9092 191.2657 203.2361 192.2284 C 201.9889 194.012 201.7399 194.3653 200.8941 195.5523 C 200.6302 195.9226 200.282 196.2939 200.1202 196.3775 C 199.7803 196.5531 199.0564 196.573 198.7648 196.4147 Z" fill-rule="evenodd" fill="#FFD2A9" fill-opacity="1" stroke="none" stroke-opacity="1" stroke-width="0.1" stroke-linecap="round" stroke-linejoin="round"/>
<path id="path_9d9300d6e6e9ba009e868d670195f1a3" d="M 172.8333 185.6786 C 172.613 185.5994 172.3316 185.409 172.2079 185.2556 C 171.799 184.7482 171.8064 184.4601 172.2931 181.9758 C 172.347 181.7008 172.6363 180.0353 172.936 178.2749 C 173.2358 176.5144 173.5731 174.5564 173.6856 173.9238 C 173.7981 173.2911 174.1122 171.4682 174.3834 169.8728 C 174.6547 168.2774 175.0141 166.23 175.182 165.3232 C 175.3499 164.4163 175.6702 162.5743 175.8938 161.2299 C 176.1173 159.8855 176.3606 158.6694 176.4345 158.5276 C 176.6982 158.0214 177.0519 157.7892 177.6323 157.7411 C 178.5787 157.6627 179.0877 158.1553 179.2917 159.3469 C 179.341 159.6347 179.5836 161.0855 179.831 162.5709 C 180.3643 165.7736 180.4757 166.4243 180.593 167.022 C 180.8292 168.2245 181.1172 169.8426 181.3917 171.5093 C 181.558 172.5194 181.8725 174.3198 182.0903 175.5103 C 182.9709 180.3214 183.6082 184.345 183.5393 184.6583 C 183.4427 185.0979 183.2193 185.4078 182.8556 185.6068 C 182.5779 185.7588 182.0539 185.7792 177.8894 185.7998 C 174.0447 185.8188 173.164 185.7977 172.8333 185.6786 Z" fill-rule="evenodd" fill="#FFD2A9" fill-opacity="1" stroke="none" stroke-opacity="1" stroke-width="0.1" stroke-linecap="round" stroke-linejoin="round"/>
</defs>
<g>
<g>
<use xlink:href="#path_88e3b9e93b19afeb67503afde9cd535e"/>
</g>
<g>
<use xlink:href="#path_be7ea2451355adea76b69d97655e80ce"/>
</g>
<g>
<use xlink:href="#path_f0b5826a08dec42a059aca97dd7a585a"/>
</g>
<g>
<use xlink:href="#path_521d9f31c5e329edcff778218095c8ab"/>
</g>
<g>
<use xlink:href="#path_b59fb3099d8dc5af8b7cb3d82be1b0dc"/>
</g>
<g>
<use xlink:href="#path_ffa0270c238323987c101ab435b34433"/>
</g>
<g>
<use xlink:href="#path_b03feb13c4d43be4e3ffd772bc2ef52f"/>
</g>
<g>
<use xlink:href="#path_2ee3641e90137db1bbbe81b85ed1b3d2"/>
</g>
<g>
<use xlink:href="#path_9d9300d6e6e9ba009e868d670195f1a3"/>
</g>
</g>
</svg>